<?xml version="1.0" standalone="no"?>
<!DOCTYPE svg PUBLIC "-//W3C//DTD SVG 20010904//EN"
 "http://www.w3.org/TR/2001/REC-SVG-20010904/DTD/svg10.dtd">
<svg version="1.0" xmlns="http://www.w3.org/2000/svg"
 width="260.000000pt" height="260.000000pt" viewBox="0 0 260.000000 260.000000"
 preserveAspectRatio="xMidYMid meet">
<metadata>
Created by potrace 1.14, written by Peter Selinger 2001-2017
</metadata>
<g transform="translate(0.000000,260.000000) scale(0.100000,-0.100000)"
fill="#000000" stroke="none">
<path d="M0 1300 l0 -1300 1300 0 1300 0 0 1300 0 1300 -1300 0 -1300 0 0
-1300z m1548 819 c50 -9 62 -14 58 -28 -18 -60 -68 -322 -63 -327 3 -3 36 -12
74 -19 253 -49 403 -205 403 -420 0 -91 -29 -206 -71 -281 -47 -84 -159 -192
-245 -237 -92 -48 -166 -67 -289 -75 l-99 -7 -18 -80 c-10 -44 -20 -90 -23
-102 -5 -23 -8 -23 -145 -23 -159 0 -148 -8 -125 97 9 37 18 78 20 91 5 20 2
22 -39 22 -115 0 -245 51 -319 126 -87 88 -123 198 -115 349 12 207 109 346
313 445 92 45 234 88 318 97 32 3 60 10 63 14 4 8 64 276 64 289 0 10 -151 -9
-210 -26 -122 -34 -166 -87 -157 -191 5 -62 4 -63 -20 -63 -50 0 -112 23 -140
52 -23 25 -28 38 -28 82 0 42 6 60 28 89 47 62 186 116 349 137 89 11 330 5
416 -11z"/>
<path d="M1155 1641 c-203 -56 -307 -197 -330 -446 -12 -132 27 -260 99 -323
34 -29 110 -61 121 -50 8 8 176 810 173 823 -2 9 -19 8 -63 -4z"/>
<path d="M1446 1337 c-38 -177 -77 -359 -87 -405 -27 -120 -28 -116 33 -109
77 9 149 49 213 118 102 111 150 238 150 399 0 116 -19 177 -73 233 -28 30
-99 70 -143 80 l-25 6 -68 -322z"/>
</g>
</svg>
